Coordinates
version=1
nRows=29
nColumns=24
inDegrees=yes

Units are S.I. units (second, meters, Newtons, ...)
Angles are in degrees.

endheader
time	pelvis_tilt	pelvis_list	pelvis_rotation	pelvis_tx	pelvis_ty	pelvis_tz	hip_flexion_r	hip_adduction_r	hip_rotation_r	knee_angle_r	ankle_angle_r	subtalar_angle_r	mtp_angle_r	hip_flexion_l	hip_adduction_l	hip_rotation_l	knee_angle_l	ankle_angle_l	subtalar_angle_l	mtp_angle_l	lumbar_extension	lumbar_bending	lumbar_rotation
      1.39566667	      2.63705304	      9.88596586	     -5.33104048	      0.27505635	      1.01028785	      0.28139126	     13.90724425	    -14.09380575	     -0.09860752	    -71.61140068	     -1.31785879	    -10.20786516	      0.29942812	      6.24069186	     15.29789974	      3.04600008	    -13.89958322	      2.31547736	    -19.40527586	     -6.87978707	    -14.93543262	     -5.34101147	     -1.49812355
      1.39983333	      2.67112558	      9.70170352	     -5.33717324	      0.27994644	      1.01132449	      0.28109279	     14.42126117	    -13.82298669	     -0.11737033	    -71.30160670	     -0.77401921	    -10.55447308	      0.14118724	      5.61379401	     15.15605778	      3.22563301	    -13.38370512	      2.25852494	    -19.49245774	     -6.95492313	    -14.97681488	     -5.05627293	     -1.75745438
      1.40400000	      2.66527127	      9.50654810	     -5.35258404	      0.28481722	      1.01226471	      0.28084928	     14.96885942	    -13.51548316	     -0.10680326	    -70.94049351	     -0.20804699	    -10.84277127	      0.10425617	      5.05647436	     14.98494666	      3.30561835	    -12.91838982	      2.26897709	    -19.45671465	     -6.97459819	    -14.97333738	     -4.80597995	     -1.84799687
      1.40816667	      2.73210668	      9.30192968	     -5.36158321	      0.28966694	      1.01327001	      0.28056221	     15.41441977	    -13.21103151	     -0.12159732	    -70.51034294	      0.24040487	    -11.17445866	     -0.01112500	      4.39181756	     14.82265447	      3.50232013	    -12.39521073	      2.22971467	    -19.54159959	     -7.02986562	    -15.07502039	     -4.48292622	     -2.15588995
      1.41233333	      2.75810105	      9.11426569	     -5.35914199	      0.29452664	      1.01417916	      0.28027471	     15.89197175	    -12.92044516	     -0.14218374	    -70.03854816	      0.74485476	    -11.46960204	     -0.14452329	      3.78406303	     14.66933977	      3.65693617	    -11.89380268	      2.17847731	    -19.61302945	     -7.09409342	    -15.11262208	     -4.19855179	     -2.39125184
      1.41650000	      2.78034985	      8.93112376	     -5.35753088	      0.29936610	      1.01502929	      0.27999812	     16.36410138	    -12.63118153	     -0.15958769	    -69.52087464	      1.23443906	    -11.74387419	     -0.27140522	      3.18889855	     14.51616990	      3.79046073	    -11.40417742	      2.14585265	    -19.65150027	     -7.15508307	    -15.15026910	     -3.92812528	     -2.59154977
      1.42066667	      2.79430160	      8.76056973	     -5.33966239	      0.30420152	      1.01580881	      0.27970650	     16.83042304	    -12.35781110	     -0.19310667	    -68.96226559	      1.73247416	    -12.03261696	     -0.49825690	      2.60221906	     14.37597125	      3.95670034	    -10.91236157	      2.08844092	    -19.71458895	     -7.26064666	    -15.18361898	     -3.66252634	     -2.85236673
      1.42483333	      2.78642869	      8.56325200	     -5.33552822	      0.30901575	      1.01653525	      0.27945203	     17.30367220	    -12.03674939	     -0.20132450	    -68.33870126	      2.18788217	    -12.23551519	     -0.60773799	      2.05948922	     14.19819262	      4.04596202	    -10.46178647	      2.10249645	    -19.69467894	     -7.31186195	    -15.19238581	     -3.38449264	     -2.98382293
      1.42900000	      2.81895914	      8.40814506	     -5.32013798	      0.31383482	      1.01723523	      0.27916848	     17.72514660	    -11.78087481	     -0.23183316	    -67.68382061	      2.65727677	    -12.46885334	     -0.78569493	      1.46638632	     14.07057905	      4.16934066	     -9.98656326	      2.07109008	    -19.71615777	     -7.39369837	    -15.23905027	     -3.12512777	     -3.22338948
      1.43316667	      2.83954429	      8.24305406	     -5.29673800	      0.31864317	      1.01788806	      0.27890451	     18.13755325	    -11.50583336	     -0.26325447	    -66.97234086	      3.12436884	    -12.67107427	     -1.03763349	      0.89297925	     13.92783531	      4.29007520	     -9.52675235	      2.03407882	    -19.74488528	     -7.50671043	    -15.27830691	     -2.88996825	     -3.45145109
      1.43733333	      2.84592508	      8.08246973	     -5.27799154	      0.32344451	      1.01847318	      0.27864653	     18.55506388	    -11.23071432	     -0.28379183	    -66.21595993	      3.56247500	    -12.82589466	     -1.26587259	      0.34330040	     13.78595818	      4.38640644	     -9.07941899	      2.02630664	    -19.73694933	     -7.60689780	    -15.30354815	     -2.64651213	     -3.63685653
      1.44150000	      2.80525192	      7.93439218	     -5.26393547	      0.32823926	      1.01892331	      0.27841031	     19.01845839	    -10.95907087	     -0.28562141	    -65.42608290	      4.00617129	    -12.92905870	     -1.32268046	     -0.13171355	     13.64827530	      4.42123655	     -8.67370445	      2.04568542	    -19.67672636	     -7.63290175	    -15.27033083	     -2.42559405	     -3.71562211
      1.44566667	      2.86408731	      7.78818288	     -5.24766496	      0.33304356	      1.01947106	      0.27816280	     19.34755119	    -10.70998148	     -0.31237346	    -64.57370888	      4.37686531	    -13.04322209	     -1.46183006	     -0.74145929	     13.52438938	      4.52827011	     -8.21385147	      2.05785962	    -19.66901328	     -7.69136142	    -15.34933743	     -2.19638066	     -3.96679276
      1.44983333	      2.81318657	      7.67606533	     -5.22174745	      0.33781777	      1.01977790	      0.27792157	     19.80148313	    -10.48143254	     -0.31861790	    -63.71065347	      4.81054558	    -13.12065624	     -1.51779304	     -1.19381980	     13.42193107	      4.56976912	     -7.82048528	      2.05943511	    -19.61572596	     -7.71632962	    -15.31415578	     -2.01261974	     -4.06790448
      1.45400000	      2.87314389	      7.54295764	     -5.20126554	      0.34261807	      1.02022959	      0.27769071	     20.09720493	    -10.24673655	     -0.34354316	    -62.76626437	      5.14970288	    -13.17327430	     -1.65316418	     -1.79654656	     13.30852280	      4.67829109	     -7.37312714	      2.06957761	    -19.62247590	     -7.77164138	    -15.38889059	     -1.80344464	     -4.32862081
      1.45816667	      2.83978302	      7.42259629	     -5.16805562	      0.34739886	      1.02049471	      0.27747607	     20.48440947	    -10.00922844	     -0.35649678	    -61.79050943	      5.53135152	    -13.20958413	     -1.72237317	     -2.26241767	     13.19511138	      4.72606670	     -6.99411598	      2.06667855	    -19.58452171	     -7.80110860	    -15.36688795	     -1.62637025	     -4.44767815
      1.46233333	      2.88288336	      7.33825415	     -5.13932099	      0.35218306	      1.02077946	      0.27724487	     20.78332256	     -9.83095763	     -0.37684737	    -60.78656629	      5.87190414	    -13.24175339	     -1.94319356	     -2.84077214	     13.13062419	      4.86809060	     -6.54652443	      2.03558863	    -19.62693750	     -7.89025799	    -15.43752640	     -1.46696528	     -4.73215966
      1.46650000	      2.84199541	      7.24391168	     -5.11454467	      0.35697273	      1.02090645	      0.27704136	     21.15586624	     -9.62367827	     -0.37849084	    -59.73393608	      6.18290661	    -13.21638364	     -2.01196363	     -3.29253038	     13.04336674	      4.90477665	     -6.17370167	      2.06858901	    -19.58356378	     -7.91811281	    -15.39464669	     -1.31216601	     -4.82200236
      1.47066667	      2.86682621	      7.14665079	     -5.08791196	      0.36177181	      1.02110326	      0.27685116	     21.42847129	     -9.42343076	     -0.39299466	    -58.62167093	      6.47047422	    -13.21035577	     -2.08494545	     -3.82849885	     12.95675644	      4.97212010	     -5.77616502	      2.08476588	    -19.54103608	     -7.94736089	    -15.43970294	     -1.15089538	     -4.97602060
      1.47483333	      2.91559281	      7.08953359	     -5.07037611	      0.36656103	      1.02122228	      0.27666191	     21.67954254	     -9.27515800	     -0.40033921	    -57.49638177	      6.71605727	    -13.18830151	     -2.21336160	     -4.40317855	     12.91709713	      5.08823514	     -5.34215608	      2.09597820	    -19.56336299	     -7.99814058	    -15.50977084	     -1.02859552	     -5.21423380
      1.47900000	      2.91275391	      7.03521329	     -5.03342848	      0.37136284	      1.02123956	      0.27646761	     21.96027332	     -9.12628368	     -0.41792264	    -56.32285854	      6.98607107	    -13.17932213	     -2.49330807	     -4.91347086	     12.87394651	      5.21531782	     -4.92832373	      2.03321138	    -19.64294593	     -8.11199483	    -15.51020679	     -0.91115074	     -5.42096758
      1.48316667	      2.89055164	      6.96469130	     -5.01297760	      0.37614833	      1.02120341	      0.27632380	     22.23957915	     -8.94323310	     -0.40596183	    -55.09019899	      7.18902586	    -13.12931176	     -2.55304192	     -5.37746346	     12.80823865	      5.26433838	     -4.56908242	      2.08104214	    -19.57647536	     -8.13504732	    -15.50547548	     -0.78975480	     -5.50235154
      1.48733333	      2.90115937	      6.91253946	     -4.99282393	      0.38094769	      1.02114607	      0.27618463	     22.46895681	     -8.79098332	     -0.40748116	    -53.82386379	      7.37017118	    -13.10556030	     -2.61960343	     -5.89002656	     12.76348737	      5.33304320	     -4.17985637	      2.10163911	    -19.53923036	     -8.16118127	    -15.53777198	     -0.68350717	     -5.65125360
      1.49150000	      2.90233803	      6.86833694	     -4.97300445	      0.38574371	      1.02102808	      0.27605640	     22.69009514	     -8.64543712	     -0.40328090	    -52.51385030	      7.52636879	    -13.07846445	     -2.68162974	     -6.38961061	     12.72599024	      5.41000737	     -3.79470662	      2.11440699	    -19.51852443	     -8.18516697	    -15.54868188	     -0.59102284	     -5.79777400
      1.49566667	      2.89900087	      6.83902332	     -4.95842727	      0.39054519	      1.02083865	      0.27593898	     22.90360946	     -8.51631369	     -0.39692246	    -51.17134334	      7.65645827	    -13.05294785	     -2.74097210	     -6.88786936	     12.70373603	      5.49024390	     -3.39992636	      2.12141853	    -19.50465849	     -8.20818465	    -15.56161432	     -0.51232815	     -5.94378206
      1.49983333	      2.88146875	      6.81139553	     -4.94362828	      0.39535315	      1.02059057	      0.27583376	     23.10991312	     -8.38786892	     -0.39163148	    -49.78266388	      7.75928766	    -13.02600362	     -2.79512008	     -7.36762477	     12.68118519	      5.56789703	     -3.01351316	      2.12873570	    -19.49218823	     -8.22869143	    -15.55617044	     -0.43640941	     -6.07985389
      1.50400000	      2.88366735	      6.80023523	     -4.93628151	      0.40015833	      1.02031152	      0.27575022	     23.28024344	     -8.28002841	     -0.38636886	    -48.35806788	      7.82456191	    -13.00891418	     -2.85938894	     -7.87259646	     12.67695584	      5.64824865	     -2.61324462	      2.13000953	    -19.50349697	     -8.25271037	    -15.57921601	     -0.38902563	     -6.23943392
      1.50816667	      2.85868256	      6.79440369	     -4.93167819	      0.40496923	      1.01994503	      0.27567735	     23.45966866	     -8.17207040	     -0.37049591	    -46.89091438	      7.87594518	    -12.97430268	     -2.91504988	     -8.33895305	     12.67677366	      5.72343430	     -2.23662852	      2.13107184	    -19.49580789	     -8.27277770	    -15.55351228	     -0.33027563	     -6.36329483
      1.51233333	      2.87684001	      6.79279281	     -4.93981582	      0.40977550	      1.01959622	      0.27562875	     23.57370424	     -8.07201822	     -0.35531588	    -45.38096663	      7.86436911	    -12.99193748	     -3.00927717	     -8.87064700	     12.68417257	      5.82385811	     -1.81630839	      2.12661442	    -19.53444929	     -8.30624838	    -15.59538740	     -0.29545782	     -6.53887183
